# xmcd
#
# Track frame offsets: 
#        150
#        16627
#        32590
#        45450
#        60305
#        81675
#        96660
#        116457
#        137552
#        160355
#        177902
#        194060
#        211167
#        226895
#        245100
#        259335
#        280525
#        299962
#
# Disc length: 4297 seconds
#
# Revision: 0
# Processed by: cddbd v1.4PL0 Copyright (c) Steve Scherf et al.
# Submitted via: ExactAudioCopy v0.90b4
#
DISCID=0b10c712
DTITLE=Midnight Sax - 18 Late Night Melodies
DYEAR=1996
DGENRE=Blues
TTITLE0=Love Is All Around
TTITLE1=A Whiter Shade Of Pale
TTITLE2=The Long And Winding Road
TTITLE3=Woman
TTITLE4=Lean On Me
TTITLE5=How Deep Is Your Love?
TTITLE6=Just The Way You Are
TTITLE7=When I Fall In Love
TTITLE8=Said I Loved You... But I Lied
TTITLE9=Candle In The Wind
TTITLE10=Will You Be There?
TTITLE11=You've Lost That Loving Feeling
TTITLE12=Blue Eyes
TTITLE13=Dreamlover
TTITLE14=We've Only Just Begun
TTITLE15=One Sweet Day
TTITLE16=I Can Love You Like That
TTITLE17=Can I Touch You... There?
EXTD=
EXTT0=
EXTT1=
EXTT2=
EXTT3=
EXTT4=
EXTT5=
EXTT6=
EXTT7=
EXTT8=
EXTT9=
EXTT10=
EXTT11=
EXTT12=
EXTT13=
EXTT14=
EXTT15=
EXTT16=
EXTT17=
PLAYORDER=
